<?xml version="1.0" encoding="UTF-8"?>
<svg id="Camada_2" data-name="Camada 2" xmlns="http://www.w3.org/2000/svg" viewBox="0 0 723.89 244.4">
  <defs>
    <style>
      .cls-1 {
        font-family: Amaranth-Bold, Amaranth;
        font-size: 39.95px;
        font-weight: 700;
      }

      .cls-1, .cls-2 {
        fill: #d20a11;
      }

      .cls-3 {
        fill: #1d1d1b;
      }

      .cls-4 {
        letter-spacing: -.02em;
      }

      .cls-5 {
        letter-spacing: -.01em;
      }

      .cls-6 {
        letter-spacing: -.04em;
      }

      .cls-7 {
        fill: #f7a600;
      }
    </style>
  </defs>
  <g id="Camada_1-2" data-name="Camada 1">
    <g>
      <g>
        <path class="cls-2" d="M19.6,176.54c45.21,33.29,122.21,10.96,130.11-53.11,5.84-47.32,12.31-102.37,52.94-119,38.63-15.85,69.47,15.92,69.47,15.92,0,0,.59,1.17-.38.66-47.21-23.81-76.62,14.41-82.05,69.91-7.06,72.28-17.37,118.5-104.62,134.05-29.71,5.29-60.09-3.68-85.04-19.88-.76-1.11,18.79-29.15,19.58-28.56"/>
        <path class="cls-7" d="M272.26,21.26c-4.94-.18-13.61,3.59-17.17,24.16-5.49,14.75-.99,69.11-1.96,89.49-2.22,47.46-24.55,97.43-91.17,99.97-50.95,1.97-82.34-28.42-102.22-71.05.9.55,33.82-19.78,34.05-19.36,15.9,26.85,31.1,57.53,70.45,56.02,45.6-1.75,51.18-36.5,52.67-68.4,1.04-22.36,3.05-81.89,14.29-99.35,13.94-21.6,36.81-13.8,40.92-12.15l.13.67Z"/>
      </g>
      <g>
        <path class="cls-3" d="M350.51,102.88c-6.56-2.9-13.14-5.25-18.15-8.01-4.95-2.74-7.65-5.54-7.77-9.15-.25-6.28,5.16-11.43,17.87-11.43,6.9,0,11.95,1.55,18.24,4.12,1.18-3.34,2.38-6.68,3.58-10l1.13-3.16.32-.95c.25-.72.23-1.14.24-1.94-8.34-4-13.92-5.1-23.41-5.1-23.85,0-35.65,13.83-35.92,27.46-.72,35.16,52.98,24.95,52.43,52.59-.15,7.76-6.71,14.37-19.58,14.37-11.07,0-17.92-6.07-18.78-16.78l-17.71,2.01c.28,20.38,17.1,31.37,36.37,31.37,26.4,0,37.63-14.57,37.98-32.1.39-18.97-13.62-27.42-26.85-33.28"/>
        <path class="cls-3" d="M423.34,151.72h0c-19.19,2.69-26.96-.85-26.75-11.31l.2-5.62c.28-14.42,20.38-6.8,27.08-3.25l-.53,20.18ZM408.78,87.27h-10.64l-1.67,12.86h11.06c9.83,0,15.03,8.72,16.32,13.82-8.06-3.97-22.22-6.96-32.31-2.06-13.25,6.4-11.65,17.43-11.89,29.48-.7,34.94,38.11,27.19,60.3,25.09l.92-40.04c.08-3.66.14-7.5-.27-11.2-1.99-17.49-15.12-27.96-31.83-27.96"/>
        <path class="cls-3" d="M413.25,83.12c11.28,4.92,17.74,3.93,26.66-6.45l-6.99-11.23c-3.18,3.43-6.19,6.54-11.27,6.21-3.51-.22-7-1.92-10.18-3.25-11.4-4.73-18.09-3.55-27.16,6.56l6.63,11.31c8.71-9.01,12.6-7.39,22.32-3.15"/>
        <path class="cls-3" d="M485.55,117.73h0l-.43,21.21c-.16,8.45-5.29,12.72-12.81,12.72s-12.73-4.01-12.54-12.66l.41-21.22c.24-11.46,6.55-14.21,13.16-14.21,6.07,0,12.45,2.03,12.22,14.16M473.6,86.82c-19.04,0-29.95,11.23-30.34,30.91l-.39,19.71c-.32,15.91,8.43,30.67,29.16,30.67s29.55-14.75,29.88-30.62l.4-19.72c.38-18.89-10.35-30.96-28.71-30.96"/>
        <path class="cls-3" d="M518.75,74.82l8.16.31-1.38,68.74c-.26,12.29-8.05,13.92-13.15,13.92h-2.35l5.15,14.38c19.09-.18,26.71-8.06,27.08-26.9l1.74-86.55h-24.93l-.32,16.09Z"/>
        <path class="cls-3" d="M588.14,117.73h0l-.44,21.21c-.17,8.45-5.29,12.72-12.82,12.72s-12.73-4.01-12.55-12.66l.42-21.22c.23-11.46,6.55-14.21,13.16-14.21,6.07,0,12.46,2.03,12.23,14.16M576.18,86.82c-19.05,0-29.94,11.23-30.35,30.91l-.37,19.71c-.33,15.91,8.41,30.67,29.16,30.67s29.56-14.75,29.88-30.62l.4-19.72c.38-18.89-10.36-30.96-28.71-30.96"/>
        <path class="cls-3" d="M627.04,110.21c-.35-3.32,1.17-7.23,9.59-7.23,3.68,0,7.81.72,10.95,2.77l2.46,1.97,5.46-15.67c-5.29-3.86-12.17-5.37-18.62-5.37-20.65,0-28.42,13.49-27.63,23.89,1.63,20.34,21.64,19.45,33.3,26.47,9.2,5.55,4.19,15.82-6.69,15.82-6.9,0-11.99-2.68-12.47-9.67l-16.69,1.28c.34,16.73,13.25,24.4,28.91,24.4,19.8,0,28.89-11.54,29.15-24.02.55-27.95-36.42-24.89-37.73-34.63"/>
        <path class="cls-3" d="M696.01,103.42h0c5.08,0,10.95,2.65,10.78,10.26l-.16,8.19-23,1.28c.17-9.18-.87-19.74,12.37-19.74M723.4,136.96c.42-21.44,5.21-49.85-26.99-49.85-17.01,0-29.32,9.67-29.66,27.17-.45,22.1-8.23,55.17,26.06,54.12,9.67-.16,18.61-2.99,26.82-8l-6.11-14.47c-1.98,1.04-30.67,15.64-30.3-2.44l.09-4.31,40.09-2.22Z"/>
        <polygon class="cls-3" points="685.83 71.46 706.24 68.51 708.23 80.54 687.75 83.17 685.83 71.46"/>
      </g>
      <g>
        <path class="cls-3" d="M426.54,30.7c-1.54,1.48-3.69,2.21-6.44,2.21-1.66,0-3.2-.3-4.62-.91-1.42-.61-2.57-1.56-3.44-2.87-.87-1.3-1.31-2.92-1.31-4.86v-13.63c0-2.03.34-3.66,1-4.88.67-1.23,1.62-2.22,2.87-2.98,1.3-.72,2.9-1.09,4.8-1.09,2.31,0,4.4.48,6.27,1.43l-.71,1.65c-1.69-.61-3.29-.91-4.8-.91-1.81,0-3.42.43-4.82,1.3-1.41.87-2.11,2.56-2.11,5.08v14.11c0,1.94.64,3.46,1.93,4.56,1.29,1.1,2.93,1.65,4.91,1.65s3.61-.56,4.8-1.69c1.18-1.13,1.78-2.62,1.78-4.47v-2.56h-2.93l-.84-2.39h6.13v13.03h-1.82l-.62-1.78Z"/>
        <path class="cls-3" d="M426.54,30.7c-1.54,1.48-3.69,2.21-6.44,2.21-1.66,0-3.2-.3-4.62-.91-1.42-.61-2.57-1.56-3.44-2.87-.87-1.3-1.31-2.92-1.31-4.86v-13.63c0-2.03.34-3.66,1-4.88.67-1.23,1.62-2.22,2.87-2.98,1.3-.72,2.9-1.09,4.8-1.09,2.31,0,4.4.48,6.27,1.43l-.71,1.65c-1.69-.61-3.29-.91-4.8-.91-1.81,0-3.42.43-4.82,1.3-1.41.87-2.11,2.56-2.11,5.08v14.11c0,1.94.64,3.46,1.93,4.56,1.29,1.1,2.93,1.65,4.91,1.65s3.61-.56,4.8-1.69c1.18-1.13,1.78-2.62,1.78-4.47v-2.56h-2.93l-.84-2.39h6.13v13.03h-1.82l-.62-1.78Z"/>
        <path class="cls-3" d="M456.18,21.71c-.53.09-1.13.13-1.78.13h-8.75v10.64h-2.49V2.08h10.93c2.82,0,4.91.84,6.29,2.52,1.38,1.68,2.07,3.94,2.07,6.77,0,2.17-.25,4.1-.73,5.78s-1.55,2.95-3.18,3.82l3.96,11.51h-2.53l-3.78-10.77ZM458.16,18.15c.82-.87,1.32-1.85,1.51-2.95.19-1.1.29-2.33.29-3.69,0-2.37-.5-4.15-1.51-5.34-1.01-1.19-2.4-1.78-4.18-1.78h-8.62v15.07h8.8c1.66,0,2.89-.43,3.71-1.3"/>
        <path class="cls-3" d="M456.18,21.71c-.53.09-1.13.13-1.78.13h-8.75v10.64h-2.49V2.08h10.93c2.82,0,4.91.84,6.29,2.52,1.38,1.68,2.07,3.94,2.07,6.77,0,2.17-.25,4.1-.73,5.78s-1.55,2.95-3.18,3.82l3.96,11.51h-2.53l-3.78-10.77ZM458.16,18.15c.82-.87,1.32-1.85,1.51-2.95.19-1.1.29-2.33.29-3.69,0-2.37-.5-4.15-1.51-5.34-1.01-1.19-2.4-1.78-4.18-1.78h-8.62v15.07h8.8c1.66,0,2.89-.43,3.71-1.3Z"/>
        <path class="cls-3" d="M489.51,21.84h-10.13l-3.47,10.64h-2.62l9.96-30.39h2.35l10.13,30.39h-2.67l-3.56-10.64ZM480.09,19.45h8.75l-4.45-13.59-4.31,13.59Z"/>
        <path class="cls-3" d="M489.51,21.84h-10.13l-3.47,10.64h-2.62l9.96-30.39h2.35l10.13,30.39h-2.67l-3.56-10.64ZM480.09,19.45h8.75l-4.45-13.59-4.31,13.59Z"/>
        <polygon class="cls-3" points="510.13 6.55 510.13 32.48 507.64 32.48 507.64 2.08 510.13 2.08 527.01 28 527.01 2.08 529.5 2.08 529.5 32.48 527.01 32.48 510.13 6.55"/>
        <polygon class="cls-3" points="510.13 6.55 510.13 32.48 507.64 32.48 507.64 2.08 510.13 2.08 527.01 28 527.01 2.08 529.5 2.08 529.5 32.48 527.01 32.48 510.13 6.55"/>
        <path class="cls-3" d="M544.23,31.3c.73-.78,1.09-2.04,1.09-3.78V4.3l-2.98-.09v-2.13h5.51v25.27c0,2.14-.5,3.8-1.49,4.97-.99,1.17-2.36,1.76-4.11,1.76l-.58-1.61c.98,0,1.83-.39,2.55-1.17"/>
        <path class="cls-3" d="M544.23,31.3c.73-.78,1.09-2.04,1.09-3.78V4.3l-2.98-.09v-2.13h5.51v25.27c0,2.14-.5,3.8-1.49,4.97-.99,1.17-2.36,1.76-4.11,1.76l-.58-1.61c.98,0,1.83-.39,2.55-1.17Z"/>
        <path class="cls-3" d="M571.94,21.84h-10.13l-3.47,10.64h-2.62l9.96-30.39h2.35l10.13,30.39h-2.67l-3.56-10.64ZM562.52,19.45h8.75l-4.45-13.59-4.31,13.59Z"/>
        <path class="cls-3" d="M571.94,21.84h-10.13l-3.47,10.64h-2.62l9.96-30.39h2.35l10.13,30.39h-2.67l-3.56-10.64ZM562.52,19.45h8.75l-4.45-13.59-4.31,13.59Z"/>
        <path class="cls-3" d="M591.92,27.57c.67.9,1.58,1.63,2.75,2.19,1.17.57,2.51.85,4.02.85,2.28,0,4.18-.5,5.71-1.5,1.53-1,2.29-2.58,2.29-4.75,0-1.27-.37-2.34-1.11-3.19-.74-.85-1.66-1.53-2.75-2.04-1.1-.51-2.59-1.09-4.49-1.76-2.04-.7-3.68-1.34-4.91-1.93-1.23-.59-2.27-1.4-3.11-2.41-.84-1.01-1.27-2.32-1.27-3.91,0-1.27.37-2.48,1.11-3.63.74-1.14,1.86-2.07,3.36-2.78,1.5-.71,3.34-1.06,5.53-1.06,1.45,0,2.65.1,3.6.3.95.2,1.91.53,2.89,1l-.76,2.3c-1.69-.84-3.57-1.26-5.64-1.26-2.28,0-4.1.46-5.46,1.39-1.36.93-2.04,2.21-2.04,3.87,0,1.04.34,1.92,1.02,2.63.68.71,1.52,1.28,2.51,1.71.99.44,2.38.96,4.15,1.56,2.16.72,3.91,1.4,5.24,2.02,1.33.62,2.47,1.51,3.4,2.65.93,1.14,1.4,2.58,1.4,4.32,0,2.66-.87,4.8-2.6,6.4-1.73,1.61-4.41,2.41-8.02,2.41-2.19,0-4.07-.4-5.62-1.2-1.55-.79-2.74-1.82-3.55-3.08-.82-1.26-1.25-2.57-1.31-3.93h2.53c.09.98.47,1.93,1.13,2.82"/>
        <path class="cls-3" d="M591.92,27.57c.67.9,1.58,1.63,2.75,2.19,1.17.57,2.51.85,4.02.85,2.28,0,4.18-.5,5.71-1.5,1.53-1,2.29-2.58,2.29-4.75,0-1.27-.37-2.34-1.11-3.19-.74-.85-1.66-1.53-2.75-2.04-1.1-.51-2.59-1.09-4.49-1.76-2.04-.7-3.68-1.34-4.91-1.93-1.23-.59-2.27-1.4-3.11-2.41-.84-1.01-1.27-2.32-1.27-3.91,0-1.27.37-2.48,1.11-3.63.74-1.14,1.86-2.07,3.36-2.78,1.5-.71,3.34-1.06,5.53-1.06,1.45,0,2.65.1,3.6.3.95.2,1.91.53,2.89,1l-.76,2.3c-1.69-.84-3.57-1.26-5.64-1.26-2.28,0-4.1.46-5.46,1.39-1.36.93-2.04,2.21-2.04,3.87,0,1.04.34,1.92,1.02,2.63.68.71,1.52,1.28,2.51,1.71.99.44,2.38.96,4.15,1.56,2.16.72,3.91,1.4,5.24,2.02,1.33.62,2.47,1.51,3.4,2.65.93,1.14,1.4,2.58,1.4,4.32,0,2.66-.87,4.8-2.6,6.4-1.73,1.61-4.41,2.41-8.02,2.41-2.19,0-4.07-.4-5.62-1.2-1.55-.79-2.74-1.82-3.55-3.08-.82-1.26-1.25-2.57-1.31-3.93h2.53c.09.98.47,1.93,1.13,2.82Z"/>
      </g>
      <text class="cls-1" transform="translate(309.18 234.98)"><tspan class="cls-6" x="0" y="0">C</tspan><tspan x="20.13" y="0">om você </tspan><tspan class="cls-5" x="170.76" y="0">t</tspan><tspan x="185.82" y="0">odos os dia</tspan><tspan class="cls-4" x="378.87" y="0">s</tspan><tspan x="394.97" y="0">!</tspan></text>
    </g>
  </g>
</svg>